name C:/MyDriveSym/Projects/mobilecap/Data\Session20210819_0002\mocap\ForceDataProcessed\walkingTS1_forces.mot
datacolumns 19
datarows 27
range 1.07200000 1.08500000
endheader 
time	R_ground_force_vx	R_ground_force_vy	R_ground_force_vz	R_ground_force_px	R_ground_force_py	R_ground_force_pz	R_ground_torque_x	R_ground_torque_y	R_ground_torque_z	L_ground_force_vx	L_ground_force_vy	L_ground_force_vz	L_ground_force_px	L_ground_force_py	L_ground_force_pz	L_ground_torque_x	L_ground_torque_y	L_ground_torque_z	
          1.07200000	          0.00000000	          0.00000000	          0.00000000	          1.17362800	          0.00000000	         -0.20006500	          0.00000000	          0.00000000	          0.00000000	         48.42082400	        566.36206600	          8.30511500	          0.89038800	          0.00600000	         -0.26558600	          0.00000000	          4.60593900	          0.00000000	
          1.07250000	          0.00000000	          0.00000000	          0.00000000	          1.17498900	          0.00000000	         -0.20024400	          0.00000000	          0.00000000	          0.00000000	         48.78453400	        567.02386000	          8.30245800	          0.89047200	          0.00600000	         -0.26557700	          0.00000000	          4.60805100	          0.00000000	
          1.07300000	          0.00000000	          0.00000000	          0.00000000	          1.17635000	          0.00000000	         -0.20042400	          0.00000000	          0.00000000	          0.00000000	         49.14918200	        567.68739900	          8.29985400	          0.89055600	          0.00600000	         -0.26556800	          0.00000000	          4.61001900	          0.00000000	
          1.07350000	          0.00000000	          0.00000000	          0.00000000	          1.17771100	          0.00000000	         -0.20060400	          0.00000000	          0.00000000	          0.00000000	         49.51476200	        568.35260700	          8.29730300	          0.89064000	          0.00600000	         -0.26555900	          0.00000000	          4.61184100	          0.00000000	
          1.07400000	          0.00000000	          0.00000000	          0.00000000	          1.17907200	          0.00000000	         -0.20078400	          0.00000000	          0.00000000	          0.00000000	         49.88126700	        569.01940700	          8.29480300	          0.89072400	          0.00600000	         -0.26555000	          0.00000000	          4.61351800	          0.00000000	
          1.07450000	          0.00000000	          0.00000000	          0.00000000	          1.18043300	          0.00000000	         -0.20096300	          0.00000000	          0.00000000	          0.00000000	         50.24868900	        569.68772100	          8.29235300	          0.89080800	          0.00600000	         -0.26554100	          0.00000000	          4.61505000	          0.00000000	
          1.07500000	          0.00000000	          0.00000000	          0.00000000	          1.18179400	          0.00000000	         -0.20114300	          0.00000000	          0.00000000	          0.00000000	         50.61702100	        570.35747200	          8.28995100	          0.89089200	          0.00600000	         -0.26553200	          0.00000000	          4.61643600	          0.00000000	
          1.07550000	          0.00000000	          0.00000000	          0.00000000	          1.18315500	          0.00000000	         -0.20132300	          0.00000000	          0.00000000	          0.00000000	         50.98625500	        571.02858100	          8.28759500	          0.89097500	          0.00600000	         -0.26552300	          0.00000000	          4.61767400	          0.00000000	
          1.07600000	          0.00000000	          0.00000000	          0.00000000	          1.18451600	          0.00000000	         -0.20150300	          0.00000000	          0.00000000	          0.00000000	         51.35638400	        571.70096700	          8.28528500	          0.89105900	          0.00600000	         -0.26551400	          0.00000000	          4.61876600	          0.00000000	
          1.07650000	          0.00000000	          0.00000000	          0.00000000	          1.18587700	          0.00000000	         -0.20168200	          0.00000000	          0.00000000	          0.00000000	         51.72739900	        572.37455200	          8.28301700	          0.89114300	          0.00600000	         -0.26550500	          0.00000000	          4.61971100	          0.00000000	
          1.07700000	          0.00000000	          0.00000000	          0.00000000	          1.18723800	          0.00000000	         -0.20186200	          0.00000000	          0.00000000	          0.00000000	         52.09929400	        573.04925400	          8.28079100	          0.89122600	          0.00600000	         -0.26549600	          0.00000000	          4.62050800	          0.00000000	
          1.07750000	          0.00000000	          0.00000000	          0.00000000	          1.18859900	          0.00000000	         -0.20204200	          0.00000000	          0.00000000	          0.00000000	         52.47205800	        573.72499200	          8.27860500	          0.89130900	          0.00600000	         -0.26548700	          0.00000000	          4.62115700	          0.00000000	
          1.07800000	          0.00000000	          0.00000000	          0.00000000	          1.18996000	          0.00000000	         -0.20222200	          0.00000000	          0.00000000	          0.00000000	         52.84568500	        574.40168400	          8.27645700	          0.89139300	          0.00600000	         -0.26547800	          0.00000000	          4.62165800	          0.00000000	
          1.07850000	          0.00000000	          0.00000000	          0.00000000	          1.19132100	          0.00000000	         -0.20240100	          0.00000000	          0.00000000	          0.00000000	         53.22016500	        575.07924600	          8.27434500	          0.89147600	          0.00600000	         -0.26546900	          0.00000000	          4.62201000	          0.00000000	
          1.07900000	          0.00000000	          0.00000000	          0.00000000	          1.19268200	          0.00000000	         -0.20258100	          0.00000000	          0.00000000	          0.00000000	         53.59549000	        575.75759600	          8.27226700	          0.89155900	          0.00600000	         -0.26546000	          0.00000000	          4.62221300	          0.00000000	
          1.07950000	          0.00000000	          0.00000000	          0.00000000	          1.19404300	          0.00000000	         -0.20276100	          0.00000000	          0.00000000	          0.00000000	         53.97165000	        576.43665000	          8.27022100	          0.89164200	          0.00600000	         -0.26545100	          0.00000000	          4.62226700	          0.00000000	
          1.08000000	          0.00000000	          0.00000000	          0.00000000	          1.19540400	          0.00000000	         -0.20294000	          0.00000000	          0.00000000	          0.00000000	         54.34863700	        577.11632300	          8.26820500	          0.89172600	          0.00600000	         -0.26544300	          0.00000000	          4.62217100	          0.00000000	
          1.08050000	          0.00000000	          0.00000000	          0.00000000	          1.19676500	          0.00000000	         -0.20312000	          0.00000000	          0.00000000	          0.00000000	         54.72644100	        577.79653000	          8.26621700	          0.89180900	          0.00600000	         -0.26543400	          0.00000000	          4.62192600	          0.00000000	
          1.08100000	          0.00000000	          0.00000000	          0.00000000	          1.19812600	          0.00000000	         -0.20330000	          0.00000000	          0.00000000	          0.00000000	         55.10505300	        578.47718500	          8.26425500	          0.89189100	          0.00600000	         -0.26542500	          0.00000000	          4.62153000	          0.00000000	
          1.08150000	          0.00000000	          0.00000000	          0.00000000	          1.19948800	          0.00000000	         -0.20348000	          0.00000000	          0.00000000	          0.00000000	         55.48446300	        579.15820200	          8.26231700	          0.89197400	          0.00600000	         -0.26541600	          0.00000000	          4.62098400	          0.00000000	
          1.08200000	          0.00000000	          0.00000000	          0.00000000	          1.20084900	          0.00000000	         -0.20365900	          0.00000000	          0.00000000	          0.00000000	         55.86466100	        579.83949400	          8.26040000	          0.89205700	          0.00600000	         -0.26540800	          0.00000000	          4.62028800	          0.00000000	
          1.08250000	          0.00000000	          0.00000000	          0.00000000	          1.20221000	          0.00000000	         -0.20383900	          0.00000000	          0.00000000	          0.00000000	         56.24563700	        580.52097300	          8.25850200	          0.89214000	          0.00600000	         -0.26539900	          0.00000000	          4.61944100	          0.00000000	
          1.08300000	          0.00000000	          0.00000000	          0.00000000	          1.20357100	          0.00000000	         -0.20401900	          0.00000000	          0.00000000	          0.00000000	         56.62738100	        581.20255100	          8.25662100	          0.89222300	          0.00600000	         -0.26539000	          0.00000000	          4.61844400	          0.00000000	
          1.08350000	          0.00000000	          0.00000000	          0.00000000	          1.20493200	          0.00000000	         -0.20419900	          0.00000000	          0.00000000	          0.00000000	         57.00988300	        581.88413900	          8.25475400	          0.89230500	          0.00600000	         -0.26538200	          0.00000000	          4.61729500	          0.00000000	
          1.08400000	          0.00000000	          0.00000000	          0.00000000	          1.20629300	          0.00000000	         -0.20437800	          0.00000000	          0.00000000	          0.00000000	         57.39313200	        582.56564900	          8.25289900	          0.89238800	          0.00600000	         -0.26537300	          0.00000000	          4.61599500	          0.00000000	
          1.08450000	          0.00000000	          0.00000000	          0.00000000	          1.20765400	          0.00000000	         -0.20455800	          0.00000000	          0.00000000	          0.00000000	         57.77711700	        583.24699100	          8.25105300	          0.89247000	          0.00600000	         -0.26536400	          0.00000000	          4.61454400	          0.00000000	
          1.08500000	          0.00000000	          0.00000000	          0.00000000	          1.20901500	          0.00000000	         -0.20473800	          0.00000000	          0.00000000	          0.00000000	         58.16182700	        583.92807400	          8.24921400	          0.89255300	          0.00600000	         -0.26535600	          0.00000000	          4.61294200	          0.00000000	
